<?xml version="1.0" encoding="utf-8" ?><svg xmlns="http://www.w3.org/2000/svg" xmlns:xlink="http://www.w3.org/1999/xlink" width="200" height="67" viewBox="0 0 200 67"><path fill="#23A032" transform="scale(0.170358 0.171356)" d="M238.27 162.504C265.539 161.8 295.235 162.402 322.69 162.417C322.721 163.316 322.74 164.215 322.747 165.114L322.822 281.531C322.844 305.366 323.788 329.924 320.946 353.559C316.233 392.748 269.359 387.999 240.039 387.97L200.335 388.003L194.394 367.916L186.684 342.929L232.76 342.95C241.379 342.948 250.068 343.19 258.658 342.549C268.169 341.838 269.279 337.388 270.363 329.184C246.215 328.591 227.906 322.098 209.233 306.079C188.449 287.571 174.989 260.807 173.293 233.052C170.471 186.849 194.107 165.113 238.27 162.504ZM252.914 278.079C258.836 281.471 263.318 283.111 270.095 284.393C271.153 259.95 269.97 232.499 270.365 207.796C264.932 207.731 259.498 207.737 254.065 207.815C235.638 208.906 225.945 213.189 227.359 234.049C228.486 250.675 238.363 269.487 252.914 278.079Z"/><path fill="#003F13" transform="scale(0.170358 0.171356)" d="M1118.47 103.94C1134.77 103.304 1154.61 103.848 1171.15 103.901L1171.15 329.181C1158.96 329.029 1145.82 329.193 1133.64 329.171C1112.19 329.134 1100.43 329.914 1080.4 321.845C1069.5 317.134 1060.38 310.333 1051.55 301.966C1021.75 273.734 1005.36 214.066 1036.05 180.974C1055.9 159.566 1091.34 162.46 1118.46 162.407L1118.47 103.94ZM1099.91 278.594C1106.2 282.011 1111.17 283.854 1118.41 284.712L1118.43 207.746C1111.58 207.601 1104.72 207.615 1097.86 207.787C1078.87 209.287 1072.54 215.655 1074.03 235.366C1075.33 252.42 1085.2 269.715 1099.91 278.594Z"/><path fill="#23A032" transform="scale(0.170358 0.171356)" d="M512.687 159.036C517.541 158.098 525.373 158.868 530.408 158.617C559.745 157.153 597.358 162.007 608.904 194.273C618.511 221.123 610.661 258.708 599.182 284.234C589.731 305.251 574.73 323.344 552.487 331.519C492.701 347.971 458.908 285.34 454.247 235.499C450.164 191.837 466.627 163.091 512.687 159.036ZM538.24 284.455C551.203 274.067 556.409 254.851 558.48 238.996C561.798 213.584 553.77 202.305 527.452 204.2C502.807 209.304 506.652 227.879 509.891 247.787C511.701 258.909 522.559 292.482 538.24 284.455Z"/><path fill="#23A032" transform="scale(0.170358 0.171356)" d="M67.4085 162.512C94.6726 161.789 124.972 162.472 152.478 162.49L152.521 329.401C133.844 329.448 108.022 330.22 90.0963 328.846C70.5913 327.1 54.7234 320.241 39.8207 307.51C18.4794 289.044 5.28876 262.899 3.11637 234.759C1.70079 216.333 4.07617 197.14 16.6744 182.793C30.3979 167.166 47.9342 163.921 67.4085 162.512ZM72.6085 269.585C81.4503 278.273 87.4041 281.932 99.9078 284.476L99.9655 228.191C99.9684 225.313 100.27 209.773 99.7102 207.927C79.6809 207.709 56.8352 203.35 56.958 230.819C57.1361 245.245 62.7212 259.079 72.6085 269.585Z"/><path fill="#23A032" transform="scale(0.170358 0.171356)" d="M431.081 24.9653L434.175 25.6386C442.422 31.2241 448.079 34.7477 457.599 38.0632C478.157 45.2232 506.516 45.7646 527.987 44.8198C606.556 41.3626 672.653 33.2856 691.25 128.41C692.616 135.398 693.559 142.706 694.456 150.012C687.677 144.384 681.062 138.907 673.296 134.676C634.807 113.709 588.911 115.068 546.435 110.861C521.606 108.402 496.485 105.005 474.936 91.4891C470.228 88.5361 465.936 84.9484 461.275 82.0775C461.392 79.8876 459.268 78.1664 457.834 76.7121C455.227 73.6031 452.164 69.3121 449.81 65.9677C446.089 65.9066 448.269 61.9096 443.849 60.7111C437.872 51.0462 433.724 35.8813 431.081 24.9653Z"/><path fill="#FEFCFE" transform="scale(0.170358 0.171356)" d="M431.081 24.9653L434.175 25.6386C436.78 39.6923 442.885 53.5526 449.81 65.9677C446.089 65.9066 448.269 61.9096 443.849 60.7111C437.872 51.0462 433.724 35.8813 431.081 24.9653Z"/><path fill="#003F13" transform="scale(0.170358 0.171356)" d="M580.766 162.435L581.083 162.424C595.075 162.075 610.767 162.344 624.996 162.409C645.68 162.904 668.033 160.8 688.221 165.802C726.043 175.174 719.839 228.353 719.833 257.951L719.923 329.291C702.405 329.016 684.281 329.229 666.718 329.223L666.73 261.544C666.74 248.515 667.315 230.513 665.727 218.087C661.384 205.078 642.404 207.572 631.227 207.796L631.288 329.259L577.922 329.288L578.11 322.493C611.909 296.868 630.948 232.472 616.104 191.968C610.04 175.421 595.986 168.776 580.766 162.435Z"/><path fill="#23A032" transform="scale(0.170358 0.171356)" d="M434.439 159.028C435.716 158.82 440.166 158.741 441.685 158.68C442.342 172.769 441.846 192.037 441.861 206.51C439.364 206.747 436.875 207.054 434.396 207.43C422.118 209.308 414.17 213.686 406.811 223.719C406.383 233.534 406.791 244.728 406.703 254.663C406.483 279.488 407.184 304.659 406.651 329.461C389.207 329.581 371.762 329.526 354.319 329.295C353.494 313.723 354.272 288.988 354.27 272.763L354.024 162.434L404.609 162.474L404.67 171.677C414.236 164.013 422.378 160.44 434.439 159.028Z"/><path fill="#003F13" transform="scale(0.170358 0.171356)" d="M1000.82 159.024C1001.96 158.821 1006.37 158.78 1007.77 158.742C1007.73 174.653 1007.81 190.563 1008.03 206.472L1003.75 207.016C989.3 208.912 981.847 212.487 973.022 223.977C972.612 234.974 972.928 247.971 972.899 259.129L972.813 329.146L920.544 329.166L920.444 321.772L920.349 162.57C937.171 162.443 953.994 162.451 970.816 162.595L970.871 171.968C980.575 163.849 988.394 160.582 1000.82 159.024Z"/><path fill="#575757" transform="scale(0.170358 0.171356)" d="M788.722 154.451C791.639 154.192 794.947 154.213 797.893 154.285C821.811 155.028 844.474 165.163 860.974 182.495C877.385 199.774 886.275 222.856 885.696 246.681C885.069 270.545 875.092 293.207 857.916 309.785C840.222 326.694 816.566 335.93 792.097 335.481C766.793 334.825 744.659 324.344 727.346 306.102C726.832 290.041 727.387 270.634 727.448 254.264C730.697 274.184 740.155 288.646 756.357 300.34C763.692 305.32 771.94 308.797 780.626 310.572C798.683 314.207 817.442 310.476 832.735 300.209C847.452 290.265 857.653 274.918 861.126 257.498C864.577 240.032 860.891 221.911 850.891 207.182C840.7 191.983 825.4 182.245 807.506 178.732C789.735 175.402 771.37 179.263 756.445 189.468C739.245 201.077 731.171 216.688 727.326 236.443C727.901 221.227 727.177 203.781 722.973 189.081C740.824 167.919 761.159 157.212 788.722 154.451Z"/><path fill="#575757" transform="scale(0.170358 0.171356)" d="M787.911 122.79C805.554 121.747 804.038 122.47 805.47 138.819C812.762 139.656 818.851 140.977 825.918 142.818C829.13 135.864 830.734 127.546 839.64 130.852C853.326 135.932 849.519 139.551 845.371 150.822C851.541 154.64 856.774 157.995 862.729 162.162C864.414 160.648 871.675 153.656 873.636 153.737C878.216 153.928 885.105 161.229 886.046 165.72C885.767 168.906 879.82 174.672 877.483 177.251C881.667 181.979 886.022 189.182 889.314 194.553C892.05 193.702 899.93 190.895 902.279 191.331C906.494 192.113 910.146 203.011 909.651 206.712C908.262 209.707 900.414 212.755 897.191 214.262C899.325 221.689 900.227 227.27 901.316 234.891C904.83 235.066 908.813 235.105 912.285 235.456C918.89 236.123 918.346 249.958 915.204 253.373C912.803 255.981 904.627 255.608 901.063 255.739C900.078 263.897 898.914 268.541 896.65 276.472C899.553 277.795 907.871 281.265 909.064 283.497C911.012 287.143 905.969 297.446 902.575 299.518C898.583 300.338 892.152 297.34 888.184 295.846C884.669 301.8 881.131 307.467 876.615 312.719C879.437 315.521 884.766 320.958 885.45 324.752C884.609 329.043 877.749 335.672 873.531 336.415C870.864 336.885 863.817 329.559 861.546 327.511C855.413 332.662 851.395 335.063 844.365 338.904C845.165 341.356 848.449 350.492 847.89 352.711C846.77 357.158 836.419 360.854 832.043 359.992C829.237 358.363 826.045 350.261 824.543 347.025C818.18 348.927 811.995 349.96 805.448 350.948C805.206 354.647 805.174 358.336 804.694 362.119C803.822 368.994 790.592 368.72 786.696 365.582C784.14 363.522 784.32 354.608 784.108 351.018C775.866 350.117 771.479 349.075 763.468 346.846C762.551 348.885 758.495 358.518 756.546 359.244C752.275 360.836 743.111 357.077 740.445 353.281C739.505 349.496 742.507 342.708 743.876 338.846L736.343 334.515C732.79 332.114 730.597 330.656 727.388 327.734C726.874 323.825 727.083 319.37 727.151 315.392C747.309 334.149 770.126 342.338 797.426 341.644C823.235 341.066 847.752 330.23 865.555 311.532C883.594 292.629 893.253 267.252 892.35 241.137C891.657 215.98 881.057 192.116 862.856 174.738C843.637 156.499 817.872 146.791 791.398 147.811C762.443 148.713 739.93 160.966 720.465 181.692C715.355 172.28 712.514 169.065 704.512 162.187C715.571 150.239 715.996 151.317 727.754 162.008C733.673 157.402 738.588 154.242 745.144 150.669C744.183 148.023 740.46 138.637 741.666 136.153C743.46 132.46 753.711 128.369 757.528 129.97C759.585 130.833 763.813 140.459 764.935 142.771C771.205 140.768 777.692 139.528 784.258 139.076C784.311 134.061 783.349 125.689 787.911 122.79Z"/><path fill="#003F13" transform="scale(0.170358 0.171356)" d="M410.392 1.76208C415.225 10.4262 423.604 18.5656 431.081 24.9653C433.724 35.8813 437.872 51.0462 443.849 60.7111C445.152 63.2343 451.435 74.6477 453.431 75.7856C455.124 78.602 460.428 85.1367 463.038 86.9833C472.34 97.6174 486.384 106.518 498.974 112.537C534.591 129.562 574.374 133.292 612.969 138.471C628.197 140.514 643.913 142.673 658.304 148.305C664.249 150.631 668.348 153.433 673.272 157.303C650.778 152.826 629.435 154.524 606.713 155.061C555.054 156.282 491.77 156.614 451.399 119.275C417.315 87.7512 412.27 45.1614 410.392 1.76208Z"/><path fill="#181717" transform="scale(0.170358 0.171356)" d="M446.94 353.12L456.496 353.127C459.328 361.385 462.248 369.612 465.258 377.806C468.664 374.505 468.74 375.184 473.445 374.737C475.438 372.681 474.645 363.681 474.591 360.184C474.529 358.109 474.14 355.33 475.262 353.729C476.786 352.666 480.461 353.097 482.511 353.172C482.797 380.43 487.49 382.976 458.616 381.635L457.267 376.674C453.632 376.584 449.858 376.608 446.208 376.579L444.67 381.741C436.237 381.946 427.532 381.761 419.078 381.69L419.194 353.166L426.818 353.156C426.971 360.316 426.915 367.798 426.96 374.984C431.334 375.03 434.599 375.007 438.993 374.684C441.377 369.645 444.435 359.223 446.94 353.12ZM453.576 370.911L454.819 370.64C455.101 368.622 452.625 360.107 451.445 358.767C450.737 361.418 448.334 367.705 448.738 369.702C449.912 371.472 451.473 370.976 453.576 370.911Z"/><path fill="#181717" transform="scale(0.170358 0.171356)" d="M659.756 352.686C680.257 350.539 687.51 374.261 667.042 382.284C660.068 382.994 657.585 381.327 651.559 378.212C646.555 366.23 646.966 358.533 659.756 352.686ZM665.188 375.742C674.148 371.695 673.383 360.174 662.657 358.872C659.867 359.995 658.268 361.061 657.01 364.007C656.062 366.207 656.073 368.702 657.04 370.893C658.741 374.716 661.361 375.496 665.188 375.742Z"/><path fill="#181717" transform="scale(0.170358 0.171356)" d="M560.683 352.753C568.965 351.738 572.892 352.61 578.325 359.017L571.691 362.216C571.409 361.988 571.122 361.767 570.831 361.551C556.363 350.903 551.411 379.418 568.024 375.726C569.67 375.36 571.212 374.619 572.094 373.109L571.702 371.854C569.904 370.574 567.098 370.981 564.785 371.047L564.928 365.199C570.079 365.017 575.235 365.017 580.386 365.2C579.672 376.919 572.88 386.118 560.26 381.551C556.302 380.135 553.084 377.178 551.339 373.354C547.079 364.051 552.039 356.592 560.683 352.753Z"/><path fill="#181717" transform="scale(0.170358 0.171356)" d="M584.744 353.125C588.503 353.028 597.621 352.434 600.67 353.784C608.175 357.107 608.033 366.611 600.309 370.213C600.772 373.882 607.305 378.063 606.461 381.647L604.339 381.83C596.316 382.107 596.308 377.849 592.519 371.305C592.227 374.521 592.267 378.541 592.212 381.828L584.684 381.753L584.744 353.125ZM597.959 365.571C598.268 363.728 598.609 362.594 597.884 360.852C596.356 359.165 594.549 359.314 592.224 358.864C592.15 360.946 591.718 364.433 592.796 365.972C594.775 366.576 595.808 366.238 597.959 365.571Z"/><path fill="#181717" transform="scale(0.170358 0.171356)" d="M529.579 353.094L539.609 353.015C541.701 360.712 546.591 373.609 549.282 381.728L541.524 381.635L539.983 376.583L529.12 376.555L527.616 381.692L519.793 381.7L529.579 353.094ZM536.12 370.966L537.742 370.637C538.246 367.988 535.553 361.486 534.519 358.687C534.019 360.427 533.452 362.566 532.856 364.258C531.086 369.286 529.53 371.146 536.12 370.966Z"/><path fill="#181717" transform="scale(0.170358 0.171356)" d="M369.054 353.074C371.067 353.004 374.734 352.619 376.319 353.527C377.369 355.372 376.984 356.288 376.954 358.608L376.96 359.814C376.983 365.558 377.979 375.185 373.594 379.535C369.537 383.717 358.203 383.673 354.411 379.27C349.608 373.693 351.257 360.262 351.409 353.089L359.121 353.138C359.185 358.216 356.237 381.275 366.993 374.487C370.183 372.474 369.1 356.754 369.054 353.074Z"/><path fill="#181717" transform="scale(0.170358 0.171356)" d="M705.162 353.091L722.641 352.93L722.525 359.504C719.489 359.389 713.08 358.506 712.139 362.167C714.867 364.967 718.482 364.215 722.151 364.094L721.977 370.575L712.433 370.551C712.432 372.025 712.23 373.365 713.144 374.466C715.558 375.653 719.616 375.056 722.706 375.037L722.5 381.766L705.064 381.83L705.162 353.091Z"/><path fill="#181717" transform="scale(0.170358 0.171356)" d="M487.994 353.115C493.85 353.077 499.706 353.082 505.561 353.128L505.563 359.445C502.779 359.422 499.994 359.477 497.213 359.608C496.09 359.655 496.52 359.464 495.662 360.398C496.247 367.058 501.813 361.687 505.913 366.607C505.993 374.821 497.688 366.511 494.841 373.122L495.632 374.379C497.458 375.539 503.26 375.21 505.553 375.192L505.548 381.747L488.016 381.732C488.206 372.194 488.199 362.652 487.994 353.115Z"/><path fill="#181717" transform="scale(0.170358 0.171356)" d="M633.363 352.753C634.437 352.6 635.516 352.49 636.598 352.425C645.441 351.969 645.738 354.068 645.481 362.196C626.165 350.196 627.452 384.988 645.509 372.216L645.366 381.138C637.406 383.227 629.516 382.802 625.133 374.713C623.196 371.072 622.791 366.81 624.007 362.869C625.599 357.767 628.853 355.132 633.363 352.753Z"/><path fill="#181717" transform="scale(0.170358 0.171356)" d="M401.141 353.059C401.174 355.078 401.469 357.583 400.469 359.244C399.104 360.294 396.514 359.996 394.675 359.984L394.739 374.316L394.49 381.894L386.826 381.748C386.72 374.546 386.768 367.241 386.754 360.03C384.901 360.048 382.235 360.332 380.773 359.384C379.703 357.854 380.16 355.07 380.265 353.073L401.141 353.059Z"/><path fill="#181717" transform="scale(0.170358 0.171356)" d="M683.744 353.059L691.772 352.976L691.822 374.806L701.349 374.806L701.36 381.181L701.103 381.582C698.572 382.084 686.917 381.813 683.667 381.791L683.744 353.059Z"/><path fill="#181717" transform="scale(0.170358 0.171356)" d="M610.514 353.071L618.535 353.073L618.476 381.794L610.531 381.774L610.514 353.071Z"/><path fill="#181717" transform="scale(0.170358 0.171356)" d="M404.958 353.115L412.846 353.157C412.716 362.646 412.82 372.35 412.829 381.856L404.915 381.733C404.81 372.194 404.825 362.654 404.958 353.115Z"/><path fill="#FEFCFE" fill-opacity="0.90980393" transform="scale(0.170358 0.171356)" d="M443.849 60.7111C448.269 61.9096 446.089 65.9066 449.81 65.9677C452.164 69.3121 455.227 73.6031 457.834 76.7121C456.045 76.6515 456.495 76.6018 454.8 75.4809L453.431 75.7856C451.435 74.6477 445.152 63.2343 443.849 60.7111Z"/><path fill="#FEFCFE" fill-opacity="0.66274512" transform="scale(0.170358 0.171356)" d="M453.431 75.7856L454.8 75.4809C456.495 76.6018 456.045 76.6515 457.834 76.7121C459.268 78.1664 461.392 79.8876 461.275 82.0775L460.735 82.8471L463.038 86.9833C460.428 85.1367 455.124 78.602 453.431 75.7856Z"/><path fill="#575757" fill-opacity="0.2" transform="scale(0.170358 0.171356)" d="M484.729 353.821C485.541 354.272 485.575 354.422 486.11 355.217C486.238 360.826 486.554 371.125 485.34 376.313C485.155 376.119 484.936 375.891 484.685 375.628C484.857 369.401 484.929 359.628 484.729 353.821Z"/></svg>